<svg xmlns="http://www.w3.org/2000/svg" viewBox="0 0 960 540">
  <defs><linearGradient id="g" x2="1" y2="1"><stop stop-color="#881337"/><stop offset=".5" stop-color="#3b0764"/><stop offset="1" stop-color="#172554"/></linearGradient><radialGradient id="r"><stop stop-color="#fb7185" stop-opacity=".7"/><stop offset="1" stop-color="#fb7185" stop-opacity="0"/></radialGradient></defs>
  <rect width="960" height="540" fill="url(#g)"/><circle cx="180" cy="110" r="310" fill="url(#r)"/><circle cx="770" cy="400" r="290" fill="url(#r)" opacity=".35"/>
  <g fill="#0f172a"><circle cx="356" cy="191" r="72"/><path d="M230 456c12-121 56-194 126-194s113 73 126 194z"/><circle cx="611" cy="191" r="72"/><path d="M485 456c12-121 56-194 126-194s113 73 126 194z"/></g>
  <path d="M480 150c-48-67-149-17-113 60 21 46 113 100 113 100s92-54 113-100c36-77-65-127-113-60z" fill="#fb7185"/>
  <path d="M480 145l-31 62 38 31-29 72" fill="none" stroke="#fff1f2" stroke-width="11" stroke-linecap="round"/>
</svg>
